<?xml version="1.0" standalone="no"?>
<!DOCTYPE svg PUBLIC "-//W3C//DTD SVG 20010904//EN"
 "http://www.w3.org/TR/2001/REC-SVG-20010904/DTD/svg10.dtd">
<svg version="1.0" xmlns="http://www.w3.org/2000/svg"
 width="810.000000pt" height="810.000000pt" viewBox="0 0 810.000000 810.000000"
 preserveAspectRatio="xMidYMid meet">
<metadata>
Created by potrace 1.11, written by Peter Selinger 2001-2013
</metadata>
<g transform="translate(0.000000,810.000000) scale(0.100000,-0.100000)"
fill="#000000" stroke="none">
<path d="M3901 7834 c16 -24 55 -93 86 -154 30 -60 59 -110 63 -110 4 0 41 14
81 31 122 52 277 104 399 134 l114 28 -39 14 c-54 19 -221 60 -270 68 -23 3
-52 8 -65 10 -49 10 -137 17 -267 20 l-132 3 30 -44z"/>
<path d="M3754 7842 c-16 -13 -80 -72 -143 -130 -62 -59 -131 -122 -152 -141
-21 -19 -39 -38 -39 -42 0 -3 26 -10 58 -13 31 -4 121 -23 200 -42 l143 -36
47 30 c26 17 73 43 104 58 l56 27 -58 116 c-79 158 -107 194 -152 196 -24 1
-45 -7 -64 -23z"/>
<path d="M3615 7839 c-38 -11 -77 -21 -85 -24 -38 -10 -233 -79 -308 -108
l-82 -32 -20 -65 c-11 -35 -18 -65 -17 -66 1 -1 65 -4 141 -7 162 -7 124 -27
333 171 73 68 141 131 150 138 16 12 15 13 -12 13 -16 0 -61 -9 -100 -20z"/>
<path d="M4659 7746 c-3 -3 -20 -8 -39 -11 -103 -18 -334 -90 -457 -142 l-83
-35 26 -31 c33 -39 77 -128 120 -241 63 -164 63 -164 98 -161 17 2 39 -1 48
-6 13 -7 19 0 34 39 60 165 116 296 185 431 68 132 87 176 68 157z"/>
<path d="M4681 7718 c-22 -36 -144 -277 -168 -333 -34 -79 -93 -243 -99 -273
-9 -52 2 -54 132 -23 65 16 196 43 289 62 94 18 171 33 173 34 2 2 -34 114
-80 249 l-83 247 -54 25 c-81 37 -94 38 -110 12z"/>
<path d="M3043 7626 c-104 -56 -194 -125 -302 -233 l-104 -104 34 -35 c33 -34
33 -34 53 -15 12 11 95 76 185 144 l165 126 17 73 c10 40 16 74 15 75 -1 1
-29 -13 -63 -31z"/>
<path d="M4954 7421 c44 -132 83 -238 86 -236 4 2 22 7 41 10 19 3 45 7 59 10
14 2 45 7 70 10 25 4 56 8 70 10 14 2 53 6 88 10 34 4 62 10 62 13 -1 16 -55
66 -216 200 -74 62 -310 212 -333 212 -4 0 29 -108 73 -239z"/>
<path d="M3980 7507 c-126 -64 -157 -87 -170 -120 -55 -138 -74 -180 -112
-240 -21 -32 -38 -59 -38 -61 0 -2 12 -3 28 -1 15 1 56 -1 92 -5 36 -5 94 -11
129 -14 36 -4 67 -9 71 -11 6 -4 178 -18 235 -19 22 -1 31 4 33 19 2 11 11 27
19 37 13 14 13 20 -1 46 -9 17 -36 82 -60 145 -24 63 -53 132 -65 154 -25 50
-69 103 -85 103 -7 0 -41 -15 -76 -33z"/>
<path d="M3100 7512 c0 -5 -73 -64 -162 -132 -90 -68 -175 -134 -190 -148
l-26 -24 81 -78 81 -77 28 20 c17 13 41 20 65 19 43 -2 41 -4 197 198 58 74
121 153 140 174 20 21 34 41 31 44 -9 9 -245 14 -245 4z"/>
<path d="M3342 7465 c-22 -24 -87 -103 -143 -177 -55 -73 -118 -150 -137 -171
-36 -37 -36 -38 -21 -65 9 -15 22 -26 29 -24 26 6 116 23 150 28 19 3 46 7 60
9 47 8 225 21 321 24 33 1 40 7 67 49 44 69 92 164 92 183 0 8 3 19 7 23 4 3
12 22 19 42 9 26 9 36 1 39 -75 24 -239 61 -312 70 -28 4 -59 8 -71 10 -14 2
-34 -11 -62 -40z"/>
<path d="M2597 7228 c-41 -54 -92 -139 -127 -208 l-32 -65 126 125 c69 69 126
126 126 127 0 5 -56 53 -62 53 -4 0 -18 -15 -31 -32z"/>
<path d="M5449 7226 c-2 -2 -33 -7 -69 -10 -55 -6 -131 -16 -235 -31 -73 -10
-105 -19 -105 -29 1 -6 24 -96 53 -200 l52 -188 77 -32 c43 -18 81 -35 84 -39
19 -18 44 -3 70 41 15 26 69 113 120 194 l92 147 -52 63 c-55 66 -80 90 -87
84z"/>
<path d="M2558 7043 l-147 -148 -3 -132 c-3 -78 0 -133 5 -133 12 0 119 77
278 199 37 29 191 121 201 121 5 0 4 9 -2 19 -5 11 -10 29 -10 41 0 14 -24 44
-67 83 -36 34 -73 70 -82 80 -8 9 -18 17 -21 17 -3 0 -71 -66 -152 -147z"/>
<path d="M4969 7156 c-2 -2 -22 -6 -44 -9 -32 -5 -154 -29 -315 -62 -8 -2 -54
-13 -102 -25 -74 -19 -87 -25 -92 -46 -8 -30 -12 -23 143 -264 l128 -199 54
26 c30 13 113 50 184 80 72 30 146 64 166 75 l37 20 -33 122 c-75 283 -76 286
-100 286 -12 0 -24 -2 -26 -4z"/>
<path d="M3497 7064 c-1 -1 -41 -4 -88 -7 -86 -7 -221 -24 -249 -32 -8 -2 -27
-6 -43 -9 -49 -8 -67 -17 -67 -32 0 -8 -11 -26 -25 -39 l-24 -25 40 -122 c23
-68 59 -169 81 -226 l40 -102 51 28 c29 16 103 57 164 91 92 51 114 67 119 89
22 102 38 155 63 207 28 57 43 100 55 155 5 25 4 26 -55 26 -33 0 -61 -1 -62
-2z"/>
<path d="M3630 7013 c-6 -29 -25 -79 -41 -110 -43 -86 -88 -253 -67 -253 11 0
213 -98 296 -144 l62 -35 47 72 c30 47 106 130 215 238 l169 166 -31 31 c-27
27 -40 32 -98 37 -142 12 -178 15 -202 19 -77 14 -189 25 -287 30 l-52 3 -11
-54z"/>
<path d="M5481 6871 c-61 -99 -111 -184 -111 -189 0 -5 19 -17 43 -27 23 -9
56 -23 72 -30 149 -69 320 -134 328 -126 16 16 -28 199 -76 316 -35 86 -122
235 -137 235 -5 0 -58 -81 -119 -179z"/>
<path d="M4378 6964 c-4 -3 -12 -7 -20 -8 -27 -5 -357 -342 -408 -416 l-51
-74 23 -18 c13 -9 34 -23 48 -30 14 -7 64 -39 111 -71 l86 -58 134 70 c74 38
187 96 251 128 l117 58 -85 130 c-46 72 -107 167 -135 213 -50 79 -59 89 -71
76z"/>
<path d="M2869 6916 c-57 -28 -141 -85 -324 -220 l-140 -103 2 -74 c5 -139 25
-202 91 -290 l36 -48 36 93 c53 134 143 308 193 374 24 31 68 102 97 157 29
55 57 105 62 112 17 21 -7 21 -53 -1z"/>
<path d="M2890 6818 c-30 -57 -78 -137 -108 -178 -78 -108 -204 -366 -218
-448 -3 -14 -7 -29 -10 -34 -3 -4 9 -8 26 -8 17 0 46 -6 65 -14 34 -15 35 -14
97 31 35 26 95 72 133 103 39 32 97 74 130 95 33 21 72 48 87 60 15 13 33 25
40 27 9 3 6 20 -11 64 -13 32 -50 136 -82 229 -45 132 -62 171 -77 173 -14 2
-30 -20 -72 -100z"/>
<path d="M2371 6753 c-5 -21 -12 -56 -16 -78 -3 -22 -8 -52 -10 -67 -6 -31 6
-36 26 -12 11 13 23 194 13 194 -2 0 -8 -17 -13 -37z"/>
<path d="M5140 6741 c0 -10 -70 -44 -272 -131 -138 -59 -165 -75 -160 -88 4
-10 34 -59 67 -109 33 -51 92 -143 132 -204 l71 -112 38 59 c86 135 106 167
123 197 10 18 58 95 105 171 68 110 83 142 72 148 -41 23 -176 76 -176 69z"/>
<path d="M5336 6637 c-8 -12 -80 -130 -161 -262 -81 -132 -156 -252 -166 -266
-18 -25 -18 -25 10 -42 16 -9 31 -27 35 -40 4 -18 20 -27 78 -45 80 -23 222
-58 278 -66 60 -9 194 -35 216 -42 22 -6 28 9 50 126 3 14 9 41 14 60 8 31 24
117 35 191 2 14 14 68 27 120 12 52 23 98 23 102 0 6 -252 118 -402 177 -18 8
-26 5 -37 -13z"/>
<path d="M3494 6631 c-5 -5 -52 -31 -104 -59 -159 -84 -215 -117 -215 -127 1
-12 93 -301 105 -330 5 -11 14 -38 21 -60 13 -45 53 -126 81 -167 29 -42 49
-35 88 34 42 73 123 184 176 241 22 23 61 74 87 113 27 39 68 95 92 124 l44
54 -42 24 c-58 33 -267 139 -299 151 -14 5 -29 6 -34 2z"/>
<path d="M2348 6553 c-16 -19 -20 -71 -22 -258 -1 -55 2 -116 6 -135 4 -19 11
-66 14 -105 4 -38 8 -71 9 -73 6 -7 165 153 165 167 0 9 -22 46 -49 83 -57 79
-77 142 -85 269 -4 68 -13 80 -38 52z"/>
<path d="M4433 6405 c-126 -64 -235 -122 -242 -130 -12 -12 -14 -46 -13 -177
1 -89 4 -163 6 -165 1 -2 38 6 82 17 85 22 103 26 173 36 25 4 55 8 66 10 45
9 197 18 303 18 61 0 112 4 112 8 0 5 11 19 24 31 l23 22 -76 121 c-176 278
-207 324 -218 324 -7 0 -115 -52 -240 -115z"/>
<path d="M5785 6427 c-17 -60 -41 -172 -50 -237 -3 -25 -13 -73 -20 -108 -8
-34 -17 -74 -20 -90 -2 -15 -11 -51 -19 -80 -15 -60 -15 -60 61 -76 30 -7 32
-6 42 31 31 119 57 323 55 433 -3 161 -4 168 -19 174 -11 4 -19 -8 -30 -47z"/>
<path d="M3039 6366 c-58 -39 -134 -95 -169 -124 -35 -30 -92 -74 -126 -98
-61 -44 -63 -46 -70 -100 -7 -58 -1 -146 15 -229 5 -27 12 -68 15 -90 8 -54
44 -227 48 -230 2 -2 91 41 198 94 107 53 239 114 292 136 91 37 98 42 98 68
0 15 7 38 15 50 14 21 12 28 -19 88 -41 77 -59 123 -126 336 -28 89 -54 164
-58 166 -4 2 -55 -28 -113 -67z"/>
<path d="M3856 6406 c-14 -19 -32 -40 -39 -48 -7 -7 -37 -48 -65 -91 -29 -42
-73 -99 -98 -125 -65 -68 -206 -282 -202 -307 2 -12 9 -18 18 -16 41 11 302
60 345 66 28 3 61 7 75 10 47 7 95 14 155 20 33 3 72 8 87 11 l26 5 -1 170 -1
171 -45 31 c-61 43 -214 137 -222 137 -4 0 -18 -15 -33 -34z"/>
<path d="M2542 6108 c-6 -13 -22 -48 -35 -78 -14 -30 -36 -80 -50 -110 -82
-180 -87 -197 -146 -555 -17 -102 -18 -122 -7 -134 12 -11 23 -7 73 31 84 65
288 189 334 203 21 7 23 21 9 80 -5 22 -12 54 -15 70 -3 17 -8 39 -10 50 -31
149 -44 253 -42 345 2 103 2 104 -23 111 -50 14 -76 10 -88 -13z"/>
<path d="M2460 6046 c-25 -23 -62 -55 -82 -70 -21 -16 -38 -37 -38 -48 0 -10
-7 -33 -16 -50 -21 -41 -135 -199 -193 -268 -25 -30 -52 -63 -59 -72 -12 -14
-3 -37 64 -167 75 -145 78 -149 99 -135 12 8 24 12 27 9 6 -7 15 23 23 81 52
350 69 413 164 623 34 74 60 135 58 137 -1 2 -23 -16 -47 -40z"/>
<path d="M4728 5995 c-2 -1 -48 -5 -103 -9 -146 -9 -262 -28 -388 -63 l-58
-16 2 -170 c3 -209 4 -214 34 -214 30 0 88 -46 145 -113 23 -27 45 -50 49 -50
3 0 16 17 27 38 67 116 187 249 386 424 89 79 123 128 104 153 -9 13 -32 17
-103 20 -51 1 -93 2 -95 0z"/>
<path d="M5050 5975 c0 -8 -7 -18 -16 -23 -14 -8 -13 -19 5 -113 18 -98 25
-166 36 -369 11 -205 47 -410 72 -410 8 0 44 4 81 10 37 5 81 12 97 14 17 2
60 5 96 5 l66 1 12 40 c7 23 14 57 17 78 2 20 6 53 9 72 2 19 7 58 10 85 4 28
8 57 10 65 2 8 7 29 9 45 10 55 56 260 65 285 5 14 12 39 15 57 4 27 2 32 -22
39 -41 11 -99 22 -202 39 -62 10 -253 57 -307 76 -43 15 -53 15 -53 4z"/>
<path d="M4926 5903 c-25 -40 -64 -78 -160 -158 -117 -97 -269 -273 -317 -366
l-19 -38 58 -48 c31 -26 59 -50 62 -54 5 -5 49 -35 154 -104 32 -22 77 -63 99
-93 31 -41 45 -53 61 -49 190 45 246 62 246 77 0 8 -7 44 -16 80 -8 36 -17 81
-20 100 -2 19 -6 51 -9 70 -3 19 -7 82 -10 140 -11 208 -19 292 -31 354 -2 12
-7 37 -10 56 -15 81 -49 93 -88 33z"/>
<path d="M4118 5905 c-2 -1 -28 -5 -58 -9 -70 -8 -207 -26 -240 -31 -14 -3
-43 -7 -65 -11 -39 -6 -226 -42 -255 -49 -8 -2 -20 -4 -26 -4 -6 -1 -19 -16
-29 -34 -17 -33 -17 -34 15 -123 50 -138 143 -389 146 -393 3 -3 6 -2 154 77
52 28 151 69 219 92 69 22 141 50 162 62 33 19 36 23 29 52 -4 17 -8 106 -9
196 -1 91 -4 167 -7 169 -6 6 -31 10 -36 6z"/>
<path d="M5622 5687 c-18 -78 -34 -153 -37 -167 -3 -14 -9 -47 -14 -75 -12
-60 -18 -100 -26 -180 l-6 -60 21 45 c84 177 177 426 195 521 6 34 5 36 -33
47 -22 7 -46 12 -53 12 -10 0 -24 -44 -47 -143z"/>
<path d="M3230 5699 c-131 -57 -426 -201 -454 -222 -18 -13 -18 -16 3 -93 32
-117 78 -238 126 -334 75 -150 76 -152 109 -145 16 3 65 29 110 59 45 29 135
84 201 121 66 37 135 76 153 87 17 10 49 27 70 39 20 12 38 22 40 24 3 2 -9
33 -29 80 -5 11 -42 112 -82 224 -88 246 -73 236 -247 160z"/>
<path d="M1997 5458 c-116 -146 -137 -252 -58 -305 31 -21 142 -72 157 -73 6
0 19 -9 29 -20 17 -19 18 -19 55 27 l37 47 -14 45 c-12 39 -114 251 -146 303
-16 25 -21 23 -60 -24z"/>
<path d="M4154 5469 c-28 -16 -111 -49 -183 -73 -124 -42 -337 -147 -347 -172
-4 -10 115 -308 171 -426 24 -52 28 -57 47 -47 11 6 35 8 53 5 30 -6 37 -2 72
38 22 25 82 107 133 183 118 174 170 243 238 315 l55 58 -75 75 c-43 44 -82
75 -94 74 -10 0 -42 -13 -70 -30z"/>
<path d="M2685 5431 c-129 -72 -155 -88 -230 -138 -111 -74 -126 -88 -128
-120 -2 -23 5 -31 43 -50 25 -13 90 -37 145 -54 238 -72 285 -89 332 -118 27
-17 66 -37 86 -46 l37 -15 -30 48 c-65 106 -128 263 -191 474 l-14 47 -50 -28z"/>
<path d="M4344 5268 c-33 -35 -71 -79 -84 -98 -13 -19 -27 -37 -30 -40 -4 -3
-35 -48 -70 -100 -77 -117 -121 -179 -178 -249 -30 -38 -40 -57 -32 -65 5 -5
10 -26 10 -46 0 -37 1 -38 98 -87 356 -181 421 -213 454 -227 45 -18 42 -21
87 101 35 95 54 138 136 308 96 200 95 190 40 268 -30 43 -63 76 -98 98 -95
59 -124 79 -195 139 -39 33 -73 60 -75 60 -2 0 -31 -28 -63 -62z"/>
<path d="M3500 5161 c-145 -82 -163 -92 -220 -124 -30 -17 -82 -49 -115 -71
-33 -22 -82 -52 -108 -67 l-48 -26 83 -31 c128 -47 239 -78 453 -128 158 -36
231 -39 250 -9 11 17 8 29 -18 85 -17 36 -63 144 -103 240 -40 96 -76 176 -81
177 -4 1 -46 -19 -93 -46z"/>
<path d="M2298 5124 c-3 -3 1 -26 8 -52 13 -42 58 -230 70 -292 3 -14 10 -45
15 -70 6 -25 12 -52 14 -60 31 -146 109 -387 159 -493 l33 -68 29 23 c16 12
31 25 34 28 17 19 91 71 122 86 33 15 39 23 49 73 7 31 14 61 15 66 1 6 5 26
9 45 22 120 68 298 104 402 11 34 16 60 10 63 -5 4 -9 4 -9 1 0 -4 -51 20
-112 52 -73 37 -151 68 -218 86 -142 38 -184 52 -258 87 -70 32 -67 31 -74 23z"/>
<path d="M2197 5077 c-28 -35 -36 -53 -35 -81 1 -27 -7 -48 -30 -79 -18 -23
-39 -56 -48 -74 -16 -30 -16 -33 0 -58 17 -26 52 -45 94 -50 33 -4 37 -12 10
-20 -34 -11 -66 -44 -73 -77 -8 -33 13 -71 54 -102 55 -41 111 -107 111 -129
0 -12 -9 -49 -21 -81 -43 -125 -16 -256 75 -353 l29 -33 36 22 c20 12 67 41
104 65 80 52 79 40 17 188 -69 167 -95 255 -161 550 -22 99 -43 189 -45 200
-3 11 -7 29 -9 40 -28 126 -51 142 -108 72z"/>
<path d="M5339 5066 c-2 -2 -34 -7 -71 -10 -37 -4 -80 -9 -95 -12 -28 -5 -45
-22 -37 -36 3 -4 7 -62 9 -128 2 -73 12 -153 24 -203 11 -45 22 -107 26 -137
3 -30 8 -71 11 -90 7 -47 12 -91 13 -112 1 -20 18 -25 18 -5 0 25 13 100 24
140 14 54 164 465 195 536 13 29 24 55 24 57 0 5 -135 5 -141 0z"/>
<path d="M5000 5008 c-116 -28 -170 -54 -170 -80 0 -5 -30 -71 -66 -146 -37
-75 -95 -206 -129 -290 l-63 -153 26 -10 c48 -18 96 -42 123 -60 43 -30 280
-145 347 -169 l63 -23 20 22 c11 12 34 24 50 28 21 4 28 10 25 22 -3 9 -8 45
-12 81 -4 36 -8 67 -9 70 -1 3 -5 34 -9 70 -5 36 -10 72 -11 80 -2 8 -6 44
-10 80 -3 36 -15 101 -26 145 -12 49 -21 127 -24 204 -2 68 -6 126 -9 129 -3
3 -1 11 5 19 6 7 10 13 8 12 -2 0 -60 -14 -129 -31z"/>
<path d="M2991 4841 c-17 -32 -67 -201 -86 -291 -41 -187 -63 -305 -59 -312 3
-5 45 -35 92 -68 48 -33 151 -104 230 -159 166 -114 306 -191 321 -176 5 6 31
53 58 105 111 213 210 402 270 514 56 107 75 152 57 133 -12 -12 -65 24 -77
51 -11 25 -17 27 -80 29 -104 3 -486 97 -634 157 -74 30 -85 32 -92 17z"/>
<path d="M3929 4606 c-9 -6 -65 -104 -124 -216 -59 -113 -129 -245 -155 -295
-98 -188 -142 -276 -139 -279 2 -2 63 -32 134 -66 114 -55 197 -98 358 -188
35 -19 54 -22 120 -20 l79 3 17 50 c10 28 30 70 45 94 34 53 51 93 128 291 32
85 79 196 104 247 49 103 49 103 30 103 -7 0 -141 65 -297 144 -237 120 -287
142 -300 132z"/>
<path d="M4517 4227 c-25 -51 -71 -159 -102 -242 -30 -82 -84 -208 -119 -280
-87 -178 -86 -165 -23 -165 35 0 70 8 103 24 27 13 87 40 134 61 47 21 127 57
179 81 51 24 95 44 98 44 10 0 207 102 239 124 19 12 52 39 74 59 36 34 38 39
28 67 -5 17 -8 36 -5 44 4 10 -17 22 -71 41 -71 25 -220 98 -352 173 -30 17
-74 38 -96 46 l-41 14 -46 -91z"/>
<path d="M2780 4203 c-70 -46 -170 -127 -170 -136 0 -16 73 -171 83 -178 9 -6
78 7 237 45 83 20 249 16 303 -7 20 -9 37 -14 37 -12 0 2 -17 14 -37 26 -21
13 -92 62 -158 109 -170 123 -242 170 -257 170 -8 0 -25 -7 -38 -17z"/>
<path d="M2496 4000 c-49 -33 -94 -61 -100 -63 -18 -7 5 -24 57 -41 41 -14
202 -25 212 -14 2 2 -15 43 -38 90 l-42 87 -89 -59z"/>
<path d="M5120 3924 c-38 -41 -134 -103 -224 -144 -44 -21 -117 -54 -161 -75
-44 -20 -114 -52 -155 -70 -41 -18 -104 -47 -140 -64 l-65 -30 502 -1 502 0
-34 74 c-37 82 -79 209 -90 272 -6 37 -10 43 -38 47 -18 3 -41 8 -52 12 -15 4
-27 -1 -45 -21z"/>
<path d="M3333 3866 c20 -18 50 -62 66 -97 l28 -62 25 49 25 50 -91 47 -91 48
38 -35z"/>
<path d="M3492 3787 c-38 -47 -57 -105 -57 -174 l0 -73 280 0 c255 0 278 1
257 15 -29 21 -111 65 -257 138 -66 33 -141 70 -167 83 -35 18 -48 21 -56 11z"/>
<path d="M1870 2720 c-322 -68 -527 -289 -536 -580 -6 -189 55 -333 195 -463
88 -81 163 -132 366 -247 326 -186 410 -261 455 -409 23 -76 24 -213 3 -284
-63 -212 -277 -318 -526 -260 -187 43 -335 193 -428 435 -38 97 -46 102 -115
73 -26 -11 -34 -19 -30 -32 3 -10 8 -38 11 -63 3 -25 8 -58 11 -75 3 -16 7
-44 10 -62 6 -49 52 -276 59 -295 7 -18 10 -20 110 -54 463 -161 910 -65 1116
238 143 210 139 520 -9 708 -87 111 -220 209 -447 330 -162 86 -187 100 -256
147 -130 86 -217 201 -236 308 -11 68 -7 167 10 226 46 158 175 249 353 249
231 0 370 -106 458 -348 14 -40 26 -83 26 -94 0 -21 10 -22 95 -5 25 5 25 35
0 227 -8 67 -27 247 -28 267 0 10 -53 26 -162 49 -162 34 -382 40 -505 14z"/>
<path d="M6121 2729 c-25 -5 -48 -12 -51 -16 -4 -5 -51 -120 -105 -258 -54
-137 -103 -263 -110 -280 -7 -16 -70 -176 -140 -355 -71 -179 -136 -344 -146
-367 -11 -23 -19 -47 -19 -53 0 -5 -4 -18 -10 -28 -5 -9 -61 -148 -124 -309
-189 -480 -220 -527 -371 -562 -28 -7 -64 -13 -80 -15 -29 -3 -30 -6 -33 -55
-2 -28 1 -51 5 -52 44 -4 797 -2 805 2 6 4 11 26 11 50 l1 44 -105 21 c-158
32 -190 54 -191 132 0 37 15 109 31 147 5 11 42 112 82 225 40 113 77 208 82
211 4 3 177 6 384 5 l376 -1 42 -120 c23 -66 45 -127 48 -135 4 -8 32 -85 63
-170 75 -207 75 -243 -2 -275 -34 -14 -115 -30 -146 -28 -20 1 -19 3 -23 -55
-1 -23 3 -46 8 -49 18 -11 867 -9 868 2 6 40 2 95 -6 96 -96 8 -190 38 -233
75 -60 51 -98 137 -272 613 -124 343 -369 1012 -465 1271 -62 171 -98 268
-102 283 -6 19 -8 19 -72 6z m8 -709 c46 -129 87 -244 91 -255 5 -11 23 -60
40 -110 17 -49 47 -134 66 -187 19 -53 34 -98 34 -100 0 -2 -146 -3 -325 -3
-179 0 -325 3 -325 8 0 4 57 159 127 345 69 185 139 371 154 412 40 111 49
133 53 129 1 -2 40 -110 85 -239z"/>
<path d="M3404 2640 c1 -55 -4 -52 101 -65 125 -15 183 -54 206 -138 19 -64
19 -1715 1 -1796 -18 -83 -63 -125 -147 -137 -16 -3 -54 -9 -83 -14 -29 -5
-58 -9 -64 -7 -11 2 -19 -75 -11 -98 2 -6 169 -10 476 -9 l472 1 3 51 c2 37
-1 52 -10 53 -7 0 -20 2 -28 3 -8 2 -37 6 -65 10 -136 16 -189 56 -211 156 -7
35 -8 1685 0 1743 14 105 50 148 144 168 81 18 82 18 129 21 l43 3 0 53 0 52
-478 0 -478 0 0 -50z"/>
</g>
</svg>
