<?xml version="1.0" standalone="no"?>
<!DOCTYPE svg PUBLIC "-//W3C//DTD SVG 20010904//EN"
 "http://www.w3.org/TR/2001/REC-SVG-20010904/DTD/svg10.dtd">
<svg version="1.0" xmlns="http://www.w3.org/2000/svg"
 width="473.000000pt" height="473.000000pt" viewBox="0 0 473.000000 473.000000"
 preserveAspectRatio="xMidYMid meet">
<metadata>
Created by potrace 1.11, written by Peter Selinger 2001-2013
</metadata>
<g transform="translate(0.000000,473.000000) scale(0.100000,-0.100000)"
fill="#000000" stroke="none">
<path d="M0 2370 l0 -2360 2365 0 2365 0 0 2360 0 2360 -2365 0 -2365 0 0
-2360z m2219 2119 c14 -6 37 -20 49 -32 50 -46 55 -71 62 -272 4 -104 3 -206
-2 -225 -4 -19 -8 -117 -8 -217 0 -100 -4 -192 -9 -205 -6 -17 -5 -29 5 -43
11 -15 14 -89 14 -392 0 -256 4 -387 12 -417 9 -36 9 -65 -5 -153 -13 -91 -15
-171 -11 -513 3 -223 5 -421 5 -440 -1 -19 -2 -174 -2 -344 1 -225 -3 -317
-12 -335 -16 -33 -15 -297 2 -440 13 -110 9 -152 -16 -172 -10 -9 -52 -13
-127 -14 -107 0 -113 -1 -161 -31 -44 -28 -61 -32 -140 -37 -81 -4 -95 -2
-140 21 -38 19 -79 28 -174 38 -196 21 -205 25 -356 178 -71 73 -170 166 -220
207 -80 67 -90 79 -93 112 -3 34 -6 37 -33 37 -41 0 -69 32 -69 77 0 29 -3 34
-12 25 -18 -18 -23 -16 -62 25 -26 28 -40 57 -57 118 -29 109 -40 127 -109
180 -91 70 -104 99 -64 146 12 13 10 20 -10 48 -13 18 -46 96 -72 174 -45 134
-48 148 -49 249 0 95 2 109 23 137 22 30 22 31 2 43 -28 18 -26 73 6 162 l26
73 -21 34 c-28 45 -26 77 5 152 23 54 28 86 39 257 8 127 18 212 30 245 9 28
54 127 100 220 46 94 96 211 110 260 25 82 32 95 84 145 37 37 84 69 138 95
46 21 85 47 88 56 12 37 75 28 75 -10 0 -26 -20 -40 -56 -39 -48 1 -187 -76
-238 -133 -36 -40 -48 -64 -63 -122 -10 -40 -56 -150 -105 -249 -118 -240
-127 -273 -137 -488 -7 -155 -11 -183 -35 -241 -29 -73 -31 -86 -15 -126 10
-26 14 -21 59 104 27 72 60 149 74 171 33 52 88 96 139 112 113 34 139 62 182
205 15 50 35 106 45 125 22 43 75 94 121 119 19 10 40 30 47 45 14 28 49 35
70 14 30 -30 0 -75 -47 -70 -31 4 -128 -57 -123 -77 1 -7 -1 -10 -6 -7 -13 8
-48 -60 -73 -144 -28 -96 -62 -163 -94 -188 -14 -12 -54 -30 -88 -41 -71 -24
-141 -76 -133 -98 3 -8 1 -11 -4 -8 -13 8 -32 -34 -118 -270 -84 -227 -89
-258 -51 -268 41 -11 126 31 182 89 62 64 97 71 142 27 67 -67 99 -219 57
-274 -11 -13 -22 -36 -25 -50 -9 -36 -36 -45 -61 -19 -16 16 -18 24 -10 38 6
9 21 18 32 20 73 11 66 178 -10 260 -31 33 -59 28 -98 -18 -39 -45 -73 -68
-142 -94 -26 -10 -57 -29 -70 -43 -21 -23 -23 -33 -23 -131 1 -96 5 -118 39
-222 34 -103 79 -200 92 -200 2 0 1 8 -4 18 -10 19 10 66 23 54 4 -4 5 1 2 10
-4 12 5 22 37 37 23 12 48 21 54 21 7 0 12 4 12 9 0 4 11 6 25 3 18 -3 27 1
31 14 4 11 16 29 27 42 l20 22 -53 0 c-49 0 -56 3 -92 40 l-38 41 2 102 3 102
27 3 c40 5 54 -28 27 -62 -46 -58 -42 -136 8 -176 31 -24 97 -27 147 -6 61 26
201 207 227 296 10 32 7 41 -32 107 -24 39 -47 69 -51 67 -4 -3 -5 1 -3 8 3 7
-22 53 -55 101 -114 166 -116 186 -25 232 44 22 65 39 77 65 23 44 24 126 3
134 -22 8 -18 43 7 60 15 11 26 12 40 5 28 -15 33 -38 14 -69 -9 -16 -16 -44
-16 -64 0 -20 -7 -53 -15 -72 -8 -20 -12 -41 -8 -47 3 -5 2 -7 -4 -4 -11 7
-66 -27 -57 -36 3 -3 -3 -3 -13 -1 -11 3 -30 -3 -42 -13 l-24 -19 21 -48 c12
-26 26 -45 32 -41 6 3 7 0 4 -9 -4 -9 1 -18 10 -22 9 -3 16 -10 16 -15 0 -18
97 -158 105 -151 5 4 5 1 1 -5 -9 -17 12 -55 26 -47 7 4 8 2 4 -5 -10 -16 22
-64 36 -55 6 4 8 3 5 -2 -3 -6 17 -34 44 -64 28 -30 57 -68 65 -84 13 -23 18
-26 26 -15 8 11 9 10 4 -4 -10 -31 22 -77 68 -98 73 -32 94 -54 106 -115 20
-98 71 -122 217 -104 67 9 90 16 100 31 24 33 73 18 73 -23 0 -23 -29 -37 -62
-31 -15 3 -62 1 -105 -5 -143 -19 -217 8 -241 89 -26 85 -34 97 -70 115 -65
30 -92 54 -118 106 -24 48 -108 148 -124 148 -4 0 -15 -21 -25 -46 -24 -63
-117 -184 -209 -271 -73 -69 -96 -113 -61 -113 8 0 14 -3 13 -7 -2 -5 0 -8 3
-8 10 0 37 -32 56 -67 10 -19 24 -33 31 -30 7 2 12 -1 12 -7 0 -6 -4 -11 -8
-11 -5 0 -9 -13 -9 -30 0 -16 4 -30 8 -30 12 0 16 -34 8 -58 -5 -12 -17 -22
-27 -22 -10 0 -33 -11 -52 -25 -57 -42 -118 -52 -175 -30 -17 7 -16 3 6 -21
36 -39 53 -76 73 -159 21 -83 29 -95 67 -95 15 0 32 -7 37 -16 7 -12 13 -8 34
23 31 47 168 189 186 195 9 2 -4 32 -42 94 -66 106 -84 169 -67 232 15 53 67
113 121 137 22 10 38 20 35 23 -11 11 18 42 40 42 27 0 45 -24 38 -51 -5 -18
-21 -24 -51 -20 -21 3 -97 -45 -125 -79 -35 -41 -44 -108 -23 -163 31 -83 100
-180 161 -230 57 -46 62 -48 106 -43 69 9 322 109 364 144 71 59 75 152 7 165
-31 6 -45 27 -36 52 13 33 74 25 74 -11 0 -10 25 -59 45 -92 1 -1 37 11 80 29
49 19 86 28 101 25 15 -4 48 -39 87 -92 l62 -86 5 -85 c4 -77 8 -88 30 -104
41 -31 85 -35 106 -10 33 38 83 14 57 -28 -8 -13 -23 -15 -74 -12 -118 6 -144
32 -144 145 0 90 9 70 -105 219 -12 15 -29 27 -38 27 -9 0 -52 -15 -94 -32
-59 -25 -80 -39 -89 -60 -16 -38 -64 -83 -113 -107 -57 -26 -251 -98 -304
-111 l-43 -11 8 -37 c4 -20 8 -55 8 -77 0 -36 -3 -40 -24 -40 -13 0 -29 8 -35
18 -9 15 -7 22 13 38 40 33 13 96 -63 148 l-43 30 -39 -26 c-40 -26 -151 -149
-173 -191 -7 -13 -11 -40 -9 -60 l3 -37 120 0 c66 0 128 -1 138 -3 26 -3 109
-88 105 -108 -2 -9 -11 -22 -21 -28 -15 -9 -21 -7 -32 8 -8 11 -12 29 -9 41 4
16 -2 28 -22 44 -22 17 -40 21 -99 21 -129 0 -128 -41 5 -150 50 -41 144 -129
208 -195 141 -147 172 -162 348 -174 90 -6 122 -12 165 -34 49 -23 63 -26 147
-23 65 2 98 8 110 19 48 41 85 51 197 52 l110 0 -2 85 c-5 256 -14 455 -22
463 -5 5 -55 -2 -121 -17 -61 -14 -153 -32 -205 -38 -52 -7 -92 -16 -89 -20 3
-4 -3 -11 -13 -14 -10 -4 -57 -24 -104 -45 -47 -22 -91 -39 -97 -39 -7 0 -62
24 -124 54 l-112 54 -37 -19 c-51 -26 -79 -64 -79 -109 0 -49 36 -102 78 -115
36 -10 51 -40 30 -61 -18 -18 -45 -9 -54 19 -4 12 -19 34 -35 50 -67 67 -60
166 16 219 l44 31 -29 34 c-26 29 -29 40 -27 85 2 58 23 82 51 59 22 -19 20
-48 -4 -56 -30 -10 -25 -49 11 -79 39 -33 244 -136 271 -136 11 0 52 16 91 35
39 19 78 35 86 36 9 0 -15 7 -54 15 -149 29 -250 157 -201 253 21 40 87 88
140 101 23 6 56 17 75 26 25 11 36 12 47 3 17 -14 18 -41 2 -57 -16 -16 -23
-15 -43 5 -16 15 -21 15 -73 -2 -78 -24 -132 -78 -132 -132 0 -68 65 -138 152
-164 62 -18 192 -11 348 21 83 16 161 30 175 30 14 0 29 8 35 19 6 12 10 131
10 316 0 279 -1 297 -17 290 -51 -19 -128 -27 -222 -23 -65 3 -113 1 -123 -5
-22 -14 -48 7 -48 39 0 33 47 45 67 18 12 -16 30 -20 116 -23 115 -3 196 11
222 39 14 16 16 29 10 77 -4 31 -8 231 -10 443 -3 297 0 403 11 465 29 169 24
176 -119 152 -56 -9 -112 -17 -125 -17 -13 0 -21 -4 -18 -9 3 -5 -7 -14 -23
-19 -48 -17 -78 30 -47 71 17 22 52 22 64 0 9 -16 16 -16 113 0 57 9 114 17
127 17 l22 0 0 375 c0 206 -2 375 -4 375 -2 0 -19 -6 -37 -14 -19 -7 -91 -16
-164 -19 -71 -4 -146 -9 -166 -13 -35 -6 -36 -8 -36 -49 0 -73 -67 -174 -115
-175 -9 0 -20 -5 -23 -10 -14 -23 -155 -2 -155 22 0 6 -7 5 -15 -2 -12 -10
-15 -9 -15 4 0 9 -16 30 -35 47 -19 17 -35 36 -35 43 0 6 5 4 10 -4 6 -9 10
-10 10 -3 0 6 -6 18 -14 26 -22 22 -15 123 10 143 10 8 12 13 4 9 -8 -4 -2 5
13 19 32 30 32 30 -11 15 -18 -6 -29 -15 -26 -20 3 -5 -2 -6 -11 -3 -27 11
-59 -78 -52 -144 7 -64 52 -144 69 -121 8 11 9 10 4 -4 -4 -11 3 -27 17 -41
12 -12 23 -25 24 -29 2 -4 10 -21 18 -38 15 -28 18 -132 4 -124 -3 2 -27 -7
-52 -20 -26 -13 -41 -26 -35 -28 7 -3 -2 -3 -21 0 -27 5 -32 3 -26 -7 5 -9 4
-11 -4 -6 -7 4 -19 5 -29 1 -13 -5 -14 -8 -3 -14 9 -6 1 -11 -24 -15 -23 -5
-42 -3 -51 5 -17 14 -18 51 -2 67 15 15 55 16 60 0 3 -9 16 -8 53 2 40 11 45
15 29 22 -14 6 -11 7 10 3 38 -8 76 18 76 51 0 32 -12 55 -67 126 -66 87 -87
140 -80 210 3 32 14 73 24 90 24 41 82 75 145 83 26 4 48 11 48 17 0 5 13 7
33 3 24 -5 28 -4 17 4 -13 9 -13 11 2 11 9 0 19 -6 21 -12 13 -32 5 44 -13
126 -37 162 -31 150 -75 156 -36 4 -42 10 -63 52 -16 35 -41 61 -95 101 -102
76 -115 82 -142 67 -31 -16 -59 -9 -63 16 -4 30 24 51 49 36 10 -7 36 -18 56
-25 21 -7 73 -39 116 -71 59 -43 83 -69 100 -104 20 -42 26 -47 55 -47 21 0
39 -7 47 -18 13 -18 15 -18 53 2 47 24 53 32 54 69 1 32 -57 162 -72 162 -5 0
-40 21 -76 46 -42 28 -77 45 -93 44 -41 -3 -48 -1 -55 15 -12 32 17 61 49 49
8 -4 15 -12 15 -19 0 -7 13 -18 30 -25 16 -7 51 -28 77 -46 27 -19 50 -34 53
-34 3 0 5 14 6 30 1 32 28 70 50 70 17 0 44 28 44 45 0 17 -33 29 -80 30 -28
0 -36 4 -38 22 -5 34 30 47 58 23 13 -11 28 -20 33 -20 16 0 57 -41 57 -57 0
-18 20 -16 58 7 53 32 39 65 -28 65 -32 0 -35 2 -35 30 0 42 26 44 75 5 33
-26 40 -38 40 -66 0 -41 -32 -64 -120 -90 -102 -29 -109 -54 -55 -174 45 -100
45 -136 3 -177 -18 -17 -43 -36 -55 -42 -28 -14 -28 -31 -3 -134 30 -121 34
-127 75 -127 33 0 35 2 46 44 14 55 35 75 91 87 67 15 90 34 86 72 -2 18 -8
31 -15 30 -17 -4 -35 23 -31 49 3 26 39 36 55 16 6 -7 14 -39 18 -70 7 -52 5
-59 -18 -82 -14 -14 -50 -32 -81 -41 -57 -17 -76 -35 -76 -77 -1 -26 -18 -52
-40 -61 -12 -4 -11 -6 3 -6 9 -1 17 -6 17 -12 0 -6 6 -9 13 -6 10 4 13 -3 12
-24 -2 -37 -17 -36 247 -21 85 5 142 13 152 21 22 18 29 82 32 281 2 96 4 226
6 288 3 93 1 118 -13 141 -22 36 -81 64 -149 69 -46 3 -58 1 -74 -17 -16 -18
-17 -25 -8 -46 19 -41 -13 -80 -44 -54 -15 13 -19 55 -6 61 5 2 15 16 23 33 8
16 25 35 39 43 35 18 124 7 178 -23 25 -14 47 -25 50 -25 10 0 -6 137 -19 158
-8 13 -30 33 -49 45 -31 19 -52 22 -195 25 -137 4 -173 1 -249 -17 -114 -27
-198 -63 -338 -144 -62 -37 -156 -88 -208 -114 -105 -53 -104 -52 -130 -185
-15 -74 -35 -94 -174 -162 -191 -93 -275 -189 -297 -339 -10 -65 -9 -80 3 -99
29 -44 -15 -91 -50 -56 -16 16 -15 43 2 57 8 7 15 40 18 89 11 179 110 282
400 417 49 22 65 50 78 132 15 93 39 124 127 168 40 19 75 35 77 35 3 0 56 30
118 66 182 107 303 155 453 178 49 7 326 -5 354 -15z m865 -214 c181 -129 332
-235 337 -235 12 0 50 57 58 88 6 20 14 27 32 27 34 0 40 -41 7 -54 -13 -5
-38 -29 -56 -55 l-33 -46 -87 60 c-48 34 -143 102 -212 151 -69 49 -185 132
-257 184 l-133 95 -83 0 -84 0 -62 -47 c-57 -44 -61 -50 -61 -88 1 -32 3 -36
11 -22 5 9 20 17 33 17 13 0 40 14 61 30 33 26 46 30 100 30 62 0 65 -2 142
-59 43 -33 93 -73 111 -88 l33 -28 -77 -99 -77 -99 39 -33 c22 -18 42 -33 47
-34 4 0 7 -60 7 -132 l0 -133 94 -77 c52 -43 96 -78 99 -78 2 0 30 33 62 74
l59 75 30 -22 c17 -11 76 -53 131 -92 55 -39 214 -152 354 -250 139 -98 255
-185 258 -192 4 -9 -158 -253 -239 -360 -6 -8 20 -31 82 -74 58 -41 89 -68 85
-76 -5 -13 -80 -122 -303 -438 l-99 -140 -541 -3 -542 -2 0 200 0 200 233 0
232 1 135 181 c74 100 147 197 162 217 l26 36 -81 61 c-45 34 -94 64 -109 68
-20 4 -26 11 -23 26 6 30 14 40 34 40 22 0 45 -25 37 -39 -4 -6 33 -40 81 -76
48 -37 88 -72 88 -79 0 -7 -76 -115 -170 -239 l-170 -227 -222 0 -223 0 0
-170 0 -170 519 0 519 0 153 218 c84 119 173 244 197 277 l44 60 -23 15 c-111
73 -160 113 -155 126 3 8 59 90 126 183 66 93 120 173 120 178 0 4 -24 24 -52
43 -29 19 -192 133 -363 254 -170 120 -315 220 -320 222 -6 3 -35 -27 -65 -66
-30 -38 -59 -70 -65 -70 -6 0 -57 38 -113 85 l-101 85 -3 133 c-3 118 -5 132
-20 131 -10 -1 -15 2 -13 6 3 5 -10 21 -30 36 -19 14 -35 32 -35 38 0 7 32 53
70 102 39 49 70 92 70 96 0 4 -41 39 -92 77 -91 70 -93 71 -154 71 -60 0 -64
-1 -108 -45 -49 -47 -64 -53 -84 -33 -9 9 -12 3 -12 -31 0 -47 -2 -47 71 6 26
18 51 33 55 33 5 0 38 -27 74 -60 l65 -60 -93 -87 -92 -88 0 -92 0 -92 255
-191 c168 -125 253 -195 248 -203 -19 -33 -146 -197 -152 -197 -3 0 -51 34
-105 75 l-99 75 -119 0 -118 0 0 -375 0 -375 120 0 c73 0 120 4 120 10 0 14
33 13 48 -2 7 -7 12 -22 12 -35 0 -30 -43 -42 -69 -19 -14 13 -41 16 -139 16
l-122 0 0 400 0 400 144 0 144 0 89 -69 90 -68 57 73 c31 41 59 80 62 87 3 9
-58 60 -177 148 -100 74 -213 158 -250 187 l-69 53 0 103 0 103 83 73 c45 41
86 77 91 82 6 5 2 14 -10 23 -16 12 -20 12 -30 0 -6 -8 -21 -16 -33 -18 -12
-2 -53 -28 -92 -57 l-69 -55 0 -172 0 -173 45 0 c42 0 56 -9 224 -134 98 -74
181 -138 184 -143 3 -5 -7 -23 -22 -41 l-26 -33 -84 60 c-46 34 -89 61 -95 62
-65 3 -213 -4 -220 -12 -16 -15 -53 -10 -60 7 -11 28 3 54 29 54 13 0 27 -4
30 -10 4 -6 55 -10 122 -10 l115 0 70 -51 c83 -60 94 -65 101 -44 5 11 -37 48
-161 140 l-167 125 -57 0 -58 0 0 193 0 192 80 63 c44 35 80 67 80 72 0 5 7
15 15 23 12 13 12 17 1 27 -11 9 -27 2 -77 -35 -34 -25 -67 -44 -73 -42 -7 2
-11 42 -11 107 -1 115 -7 102 85 174 44 35 46 35 145 35 l100 1 329 -235z
m462 -77 c90 -73 164 -137 164 -142 0 -6 -16 -37 -36 -69 -19 -31 -34 -62 -32
-66 2 -5 62 -55 133 -112 72 -56 134 -105 138 -109 7 -6 46 -223 47 -259 0 -7
-6 -11 -14 -8 -7 3 -134 92 -282 198 -564 405 -697 499 -704 499 -15 0 -73
-82 -64 -88 61 -41 57 -32 62 -174 l4 -133 41 -37 c23 -20 47 -37 53 -38 7 0
29 24 51 53 39 52 68 98 40 65 -8 -10 -19 -18 -24 -18 -6 0 -16 -6 -22 -14
-16 -19 -43 -10 -82 25 -26 24 -32 36 -33 73 -1 29 5 50 17 63 9 11 14 22 11
26 -6 6 67 16 103 14 12 -1 20 -4 17 -8 -2 -4 6 -9 17 -12 12 -3 18 -10 14
-16 -3 -6 -1 -11 4 -11 6 0 10 -3 9 -7 -1 -5 2 -19 6 -32 5 -14 4 -27 -3 -34
-6 -6 -11 -15 -11 -20 0 -5 8 1 18 13 l18 22 209 -148 c116 -81 305 -215 420
-296 116 -82 223 -158 238 -171 l29 -22 -137 -195 c-76 -107 -140 -200 -142
-207 -2 -6 36 -40 86 -75 50 -35 91 -67 91 -71 0 -4 -34 -58 -77 -119 -45 -65
-68 -106 -56 -100 11 6 33 9 49 6 37 -6 107 -52 99 -64 -3 -6 0 -19 9 -31 l14
-21 15 24 c12 18 16 82 22 302 l6 280 57 103 c31 56 63 103 70 103 9 0 12
-147 12 -701 l0 -700 -187 -242 c-103 -133 -211 -273 -240 -311 l-53 -68 26
-20 c14 -11 26 -19 28 -17 2 2 24 30 49 62 26 32 47 68 47 81 0 28 26 42 46
25 19 -16 17 -36 -5 -48 -10 -6 -44 -42 -75 -81 -31 -38 -60 -70 -64 -70 -4 0
-25 15 -46 33 l-39 33 247 319 246 319 -1 506 c-1 278 -4 574 -8 658 l-6 152
-42 -76 -43 -77 0 -274 0 -275 -31 -39 c-17 -22 -32 -46 -33 -54 -1 -8 -6 -18
-11 -22 -4 -4 -5 -2 0 6 5 9 4 12 -3 7 -7 -4 -12 -11 -12 -16 0 -5 -14 -24
-31 -42 -17 -18 -83 -98 -147 -177 l-117 -144 4 -173 3 -174 -63 -77 c-35 -43
-110 -136 -168 -208 -58 -71 -117 -145 -133 -163 l-28 -33 -50 48 -50 48 34
39 35 38 -76 117 c-42 64 -86 133 -100 154 l-23 37 -188 0 c-104 0 -191 -2
-194 -5 -2 -3 -3 -19 0 -36 3 -17 8 -26 12 -20 7 13 29 15 105 12 38 -2 45 -4
30 -11 -13 -6 16 -9 82 -9 l103 -1 31 -42 c17 -24 51 -76 76 -116 l46 -74
-124 -124 c-103 -103 -122 -127 -113 -141 23 -37 38 -37 147 6 58 22 110 41
115 41 6 0 47 -50 92 -110 l82 -111 85 3 86 3 78 100 c43 55 78 103 78 107 1
3 -28 28 -64 54 -36 26 -65 53 -65 58 0 6 113 156 250 334 l250 322 0 206 0
207 -58 -74 c-32 -41 -95 -120 -139 -176 l-81 -101 -7 -165 -7 -164 -204 -243
c-112 -133 -204 -245 -204 -249 0 -3 16 -29 34 -57 27 -40 42 -53 66 -56 34
-5 40 1 49 46 5 22 13 32 29 34 39 6 37 -25 -4 -68 -31 -32 -46 -40 -75 -40
-33 0 -40 6 -77 59 -23 32 -44 66 -48 74 -4 10 64 98 198 257 223 266 216 253
217 396 2 183 -4 170 162 380 82 104 154 189 161 189 10 0 13 -51 15 -228 l2
-228 -87 -114 c-48 -62 -160 -208 -249 -324 -90 -115 -163 -212 -163 -214 0
-3 29 -26 65 -53 36 -27 64 -55 62 -61 -1 -7 -42 -64 -91 -128 l-89 -115 -92
1 -92 1 -83 109 c-45 60 -86 109 -91 109 -4 0 -54 -18 -110 -40 -57 -22 -108
-40 -113 -40 -14 0 -69 68 -64 79 2 5 53 62 115 127 62 66 113 123 114 128 2
5 -24 50 -57 102 l-59 93 -67 0 -67 1 13 -38 c11 -32 18 -37 46 -40 35 -4 45
-13 80 -74 l21 -37 -126 -130 -126 -130 72 -88 c39 -48 72 -89 73 -90 1 -1 53
18 116 42 62 25 114 45 115 45 1 0 36 -44 78 -99 46 -59 85 -101 99 -104 38
-9 119 -2 127 12 5 7 17 11 27 9 26 -5 27 -53 2 -52 -10 0 -56 1 -102 2 l-84
2 -72 95 c-40 52 -76 97 -80 100 -4 3 -58 -15 -119 -39 l-111 -44 -83 99 c-45
55 -83 103 -85 107 -1 5 54 67 122 138 l125 131 -27 39 c-15 22 -34 39 -42 38
-8 0 -23 -2 -33 -2 -9 -1 -17 -5 -16 -10 4 -24 -19 -56 -56 -77 -44 -27 -78
-31 -118 -16 -21 8 -26 6 -31 -12 -8 -29 -8 -537 0 -537 18 0 123 95 126 114
4 30 52 30 56 -1 3 -17 -5 -26 -30 -37 -18 -8 -59 -36 -90 -62 -89 -72 -87
-79 -90 282 -2 208 -7 307 -14 312 -12 8 -27 122 -15 122 13 0 31 66 31 113
l0 47 212 -2 211 -3 54 -80 c30 -44 79 -120 110 -169 l55 -88 -33 -34 -33 -34
29 -30 c16 -17 32 -29 36 -28 4 2 86 102 183 222 l176 219 0 177 0 178 110
137 c61 76 110 140 110 143 0 3 -3 2 -7 -1 -3 -4 -12 -2 -20 4 -10 9 -13 8
-13 -5 0 -14 -2 -15 -14 -4 -8 7 -11 18 -8 23 3 6 -7 -1 -22 -15 -15 -14 -71
-86 -123 -160 -53 -74 -105 -145 -116 -157 l-20 -23 -564 0 -563 0 -1 -547 c0
-302 -2 -581 -3 -620 -1 -40 3 -81 9 -91 5 -10 61 -83 124 -160 l115 -142 100
0 101 0 77 63 c42 34 77 67 78 72 1 6 -27 45 -61 88 -54 70 -63 77 -78 64 -94
-80 -205 -167 -211 -165 -4 2 -46 52 -94 111 l-86 109 0 564 0 564 372 0 372
0 23 -28 c13 -15 21 -20 18 -12 -4 13 6 16 57 18 77 4 114 -11 157 -61 32 -36
33 -39 29 -112 -3 -66 -7 -77 -33 -105 -36 -38 -82 -63 -101 -56 -7 3 -16 1
-20 -5 -4 -6 -11 -5 -21 3 -14 11 -14 9 1 -19 9 -18 25 -37 36 -43 23 -12 26
-42 7 -59 -19 -15 -47 7 -51 40 -3 26 -51 104 -64 104 -4 0 -6 3 -4 8 1 4 -1
6 -5 6 -21 -3 -33 2 -33 15 0 8 -5 18 -12 22 -7 5 -8 3 -3 -6 5 -9 4 -11 -3
-6 -7 4 -17 17 -22 29 -11 21 -11 21 4 3 9 -11 16 -15 16 -8 0 6 -6 17 -13 24
-8 7 -12 21 -9 32 4 14 2 17 -8 11 -9 -5 -11 -4 -6 3 4 7 -3 30 -15 52 l-23
40 -258 0 -258 0 0 -488 0 -488 32 -42 c18 -23 35 -42 38 -42 3 0 53 38 110
85 58 47 110 85 115 85 6 0 45 -44 88 -98 43 -55 85 -107 95 -118 42 -47 102
-128 102 -138 -1 -6 -46 -47 -101 -90 -55 -43 -105 -90 -110 -103 -13 -34 -54
-29 -54 6 0 18 7 26 25 31 25 7 210 148 210 160 0 5 -227 290 -250 314 -5 5
-54 -28 -115 -78 -59 -47 -112 -86 -118 -86 -7 1 -29 22 -49 48 l-38 47 -2
255 c-1 140 -2 370 -2 510 l-1 255 277 3 277 2 26 -37 c25 -36 26 -37 19 -9
-5 23 -4 27 6 21 10 -6 12 -4 6 11 -4 10 -4 15 0 12 3 -4 13 0 21 8 12 12 13
18 3 29 -11 13 -66 15 -361 15 l-349 0 0 -549 0 -548 75 -94 c41 -52 77 -93
81 -93 3 1 55 41 115 89 63 50 114 84 119 79 23 -24 150 -187 150 -193 -1 -3
-42 -39 -92 -79 l-91 -73 -115 3 -116 3 -127 155 -128 155 0 648 -1 647 578 0
577 1 110 156 c61 86 109 163 109 170 -1 7 2 11 6 8 4 -3 10 2 14 10 3 8 0 14
-6 12 -6 -1 -17 15 -23 36 l-11 39 -35 -44 c-19 -23 -72 -96 -118 -161 l-83
-117 -544 0 c-537 0 -544 0 -544 -20 0 -19 7 -20 153 -22 83 -1 172 -3 197 -3
25 -1 57 5 72 13 22 13 29 13 42 3 38 -32 -1 -85 -40 -56 -15 11 -64 14 -237
15 l-218 0 3 48 3 47 551 3 551 2 128 181 c71 100 136 196 145 215 10 18 19
32 21 29 2 -2 39 46 82 107 44 60 77 111 75 112 -1 1 -43 31 -93 66 -49 35
-92 65 -94 66 -2 2 63 96 143 210 81 113 146 207 144 208 -4 3 -261 183 -576
404 -150 106 -274 192 -276 192 -3 0 -37 -40 -76 -90 -39 -49 -74 -90 -77 -90
-2 0 -33 24 -69 53 l-64 52 0 129 0 129 -37 32 -37 32 37 50 c62 85 42 90 268
-73 451 -326 769 -553 769 -548 0 2 -7 48 -15 102 -18 111 -7 98 -197 244 -59
46 -108 89 -108 97 0 7 16 39 35 71 19 32 35 60 35 63 0 5 -280 233 -306 249
-13 9 -112 -14 -140 -32 -29 -18 -56 -6 -52 22 3 21 8 23 71 24 37 0 70 4 74
7 22 23 64 -1 219 -125z m-774 -219 c31 -16 38 -23 27 -30 -10 -6 -10 -9 -1
-9 17 0 15 -55 -3 -90 -19 -37 -94 -78 -106 -59 -4 8 -11 10 -15 7 -4 -4 -19
2 -35 13 -36 25 -46 74 -28 134 10 35 18 45 39 48 57 9 83 6 122 -14z m-1378
-101 c8 -13 6 -21 -7 -36 -16 -18 -21 -18 -69 -5 -73 18 -78 17 -78 -17 0 -43
34 -126 80 -195 43 -65 51 -110 26 -154 -8 -14 -12 -30 -9 -37 7 -19 -37 -45
-57 -34 -28 15 -31 48 -7 65 11 8 24 12 29 9 12 -7 37 56 30 75 -3 9 -20 36
-37 61 -18 25 -40 62 -48 82 -15 37 -16 37 -54 26 -44 -12 -72 -33 -84 -67
-11 -27 6 -55 27 -47 18 7 36 -19 32 -46 -2 -18 -9 -23 -33 -23 -27 0 -32 5
-46 49 -12 37 -14 57 -7 78 13 37 60 76 103 84 l34 6 -6 47 c-7 62 12 84 66
75 27 -4 40 -2 51 11 16 19 49 16 64 -7z m-168 -366 c38 -26 7 -78 -39 -67
-14 4 -42 2 -62 -5 -44 -15 -97 -58 -88 -72 3 -6 2 -9 -3 -5 -5 3 -32 -27 -59
-66 -36 -52 -69 -85 -117 -117 -37 -25 -78 -55 -91 -68 -35 -33 -79 -127 -72
-155 9 -33 -25 -63 -54 -47 -27 14 -29 60 -2 67 10 2 28 26 40 53 30 66 91
133 157 171 41 23 69 50 102 98 66 94 133 158 179 170 21 6 44 20 51 31 12 20
38 26 58 12z m2246 -143 c79 -56 158 -108 176 -115 35 -15 41 -34 17 -54 -12
-10 -18 -10 -30 0 -8 7 -15 18 -15 24 0 12 -272 206 -288 206 -11 0 -122 -153
-122 -167 0 -4 22 -23 48 -41 225 -154 411 -289 411 -297 1 -5 -31 -55 -70
-110 l-71 -100 29 -22 c15 -12 48 -37 72 -55 25 -18 44 -38 42 -43 -1 -6 -61
-94 -134 -198 l-131 -187 -388 2 c-248 2 -389 7 -391 13 -1 6 133 11 383 13
l385 3 124 176 124 176 -29 24 c-16 13 -48 36 -71 51 -24 15 -43 33 -43 40 0
7 32 58 71 113 39 55 70 101 68 103 -2 2 -109 76 -237 166 -128 89 -232 166
-230 170 7 19 144 209 150 210 4 0 72 -46 150 -101z m-352 46 c15 -18 6 -45
-18 -52 -9 -2 -57 -58 -106 -124 -48 -65 -92 -119 -97 -119 -6 0 -63 41 -128
90 l-119 90 -67 0 -68 0 6 -272 c4 -150 7 -276 7 -280 0 -5 37 -7 83 -7 45 1
72 4 60 6 -15 3 -24 14 -29 36 -3 18 -12 35 -18 39 -7 5 -3 8 9 9 11 1 4 4
-15 8 l-35 6 0 195 c0 192 0 195 22 198 14 2 65 -29 157 -97 94 -70 140 -99
153 -95 14 4 15 4 4 -4 -16 -12 3 -27 24 -18 8 3 17 0 21 -6 4 -7 3 -8 -4 -4
-7 4 -12 2 -12 -5 0 -7 8 -9 21 -6 17 5 18 3 7 -11 -11 -14 -10 -15 5 -9 10 4
16 3 12 -2 -3 -5 22 -31 55 -57 33 -26 59 -51 58 -56 -2 -5 -62 -87 -133 -183
l-130 -174 -201 -3 c-219 -3 -237 -2 -231 15 3 9 62 13 207 14 224 2 204 -4
263 76 15 20 25 42 21 49 -4 6 -3 8 3 5 10 -6 31 13 48 43 8 13 7 13 -8 1 -9
-7 -17 -10 -17 -5 -1 5 -8 0 -18 -11 -16 -18 -34 -26 -72 -29 -8 0 -21 -8 -28
-16 -11 -13 -11 -13 -7 0 4 11 -4 15 -31 17 -42 2 -72 22 -52 34 7 5 -39 9
-104 9 l-118 0 0 310 0 310 78 0 78 0 112 -84 c61 -47 116 -87 121 -90 14 -9
171 209 171 238 0 35 38 48 60 21z m289 -158 c5 -14 73 -67 163 -130 84 -59
166 -117 182 -130 l29 -24 -33 -49 c-19 -27 -58 -82 -88 -122 -30 -41 -50 -77
-46 -81 5 -5 40 -29 77 -56 l68 -47 -17 -27 c-10 -14 -60 -87 -112 -161 -53
-74 -116 -164 -140 -200 -25 -36 -50 -68 -56 -72 -6 -4 -221 -8 -477 -8 -406
0 -468 2 -473 15 -5 13 51 15 467 15 l472 0 145 206 c80 114 146 212 148 218
1 7 -29 34 -68 60 -38 26 -70 53 -70 58 0 6 17 34 37 62 20 28 58 81 84 118
l48 67 -175 123 c-97 68 -180 122 -186 120 -6 -2 -19 5 -29 14 -14 13 -16 21
-8 35 14 26 48 24 58 -4z m-208 -64 c7 -20 60 -63 189 -153 99 -69 180 -128
180 -132 0 -4 -31 -52 -70 -107 -38 -54 -70 -101 -70 -104 0 -3 32 -29 71 -57
38 -28 69 -57 67 -63 -2 -7 -47 -76 -101 -153 l-99 -140 -446 0 -447 1 -3 43
-3 42 420 0 420 0 60 89 c68 101 72 86 -37 161 -35 24 -61 48 -59 55 3 6 34
53 71 104 36 52 66 97 66 100 0 12 -322 235 -354 247 -42 15 -44 57 -4 62 22
3 29 -2 33 -20 4 -15 57 -59 158 -130 84 -59 165 -118 180 -130 l28 -23 -75
-106 -74 -107 79 -53 c43 -30 79 -58 79 -62 0 -5 -30 -56 -67 -113 l-68 -104
-412 0 c-360 0 -413 -2 -413 -15 0 -13 54 -15 428 -15 l427 1 85 121 c47 67
88 127 93 134 5 9 -14 28 -60 60 -38 26 -72 51 -77 55 -5 4 26 56 67 114 l76
107 -175 124 c-96 68 -183 124 -194 124 -29 0 -44 35 -24 54 23 24 44 19 55
-11z m937 -81 c2 -13 -3 -25 -13 -28 -8 -4 -42 -44 -74 -90 -63 -90 -61 -83
-49 -229 3 -26 0 -30 -22 -30 -21 0 -24 4 -22 25 2 14 6 56 9 95 4 65 9 75 60
148 33 48 52 85 49 94 -9 22 13 45 38 41 13 -2 22 -12 24 -26z m-2811 -29 c13
-19 12 -24 -7 -43 -14 -14 -28 -19 -40 -15 -19 6 -92 -39 -87 -53 1 -4 -1 -7
-4 -7 -18 0 -39 -30 -34 -49 5 -15 4 -17 -3 -7 -8 11 -14 7 -27 -19 -25 -49
-28 -121 -11 -265 20 -170 38 -227 86 -279 37 -40 40 -41 102 -41 35 0 96 5
136 11 56 8 75 8 83 -2 15 -18 53 21 44 44 -6 14 -8 15 -12 2 -13 -44 -13 -44
-25 -32 -9 9 -9 15 0 24 16 16 15 28 -3 28 -8 0 -14 -5 -13 -11 2 -6 -3 -14
-9 -16 -8 -3 -13 4 -13 16 0 12 -4 21 -10 21 -13 0 -13 -33 0 -46 8 -8 -5 -11
-41 -13 -53 -2 -99 18 -99 42 0 8 3 9 8 1 12 -18 49 -34 80 -34 26 0 29 3 24
26 -4 24 -8 26 -43 20 -32 -5 -39 -3 -39 10 0 12 6 15 28 10 22 -5 24 -4 9 4
-9 6 -25 9 -35 6 -10 -4 -27 1 -38 10 -19 15 -18 15 3 11 13 -3 26 -1 29 4 3
5 10 6 16 3 6 -4 8 1 4 14 -9 27 10 62 32 62 14 -1 13 -4 -7 -21 -13 -11 -21
-23 -17 -26 4 -4 12 -1 17 7 8 12 10 10 6 -8 -3 -12 -1 -20 4 -16 5 3 9 12 9
20 0 8 6 14 13 14 8 0 7 4 -3 10 -14 9 -7 15 14 11 5 -1 5 4 -1 11 -15 17 20
63 39 52 10 -5 10 -4 0 7 -11 12 -17 9 -39 -16 -15 -16 -29 -30 -32 -30 -10 0
-56 -35 -53 -40 1 -3 2 -14 2 -25 0 -17 -7 -20 -44 -20 l-43 0 0 55 c0 31 4
58 10 62 6 3 7 1 3 -5 -7 -12 5 -16 32 -13 6 1 12 -3 12 -10 0 -7 9 -5 26 6
40 26 64 49 64 60 0 5 -5 3 -11 -5 -8 -12 -9 -9 -5 12 3 15 1 30 -4 33 -6 4
-10 3 -9 -2 6 -37 -20 -60 -37 -31 -5 7 -2 9 8 6 9 -4 15 0 15 8 0 9 -6 13
-14 10 -11 -5 -11 -1 1 16 14 20 14 24 -1 40 -15 17 -15 18 10 18 20 0 27 -5
27 -19 0 -11 5 -23 10 -26 6 -4 8 -10 5 -14 -2 -5 1 -16 8 -25 12 -16 14 -17
27 -1 10 12 11 18 1 28 -10 9 -11 8 -6 -4 4 -10 2 -20 -3 -23 -5 -3 -9 9 -8
28 1 22 5 32 14 29 6 -3 12 -10 12 -17 0 -6 5 -3 11 7 6 10 8 25 5 33 -3 8 -2
14 3 14 5 0 11 18 14 40 3 23 13 52 22 66 15 23 22 25 53 20 135 -22 188 -16
176 22 -5 14 -4 15 5 2 10 -13 14 -11 31 10 11 14 27 50 36 80 22 73 39 97 88
122 42 22 79 25 234 19 74 -3 95 -23 63 -62 -17 -21 -22 -22 -45 -11 -15 7
-25 16 -22 21 3 5 -1 11 -9 15 -56 21 -207 17 -174 -5 10 -8 9 -9 -7 -4 -38
10 -78 -35 -99 -110 -30 -113 -123 -173 -224 -145 -23 6 -46 8 -51 5 -6 -3
-10 0 -10 7 0 9 -4 8 -14 -2 -8 -8 -20 -46 -26 -85 -6 -38 -16 -75 -22 -82 -6
-7 -7 -13 -3 -13 4 0 2 -6 -4 -14 -8 -10 -9 -16 -1 -21 6 -4 10 -3 9 2 -1 4 0
11 1 16 1 4 3 13 4 20 1 6 6 11 12 10 10 -2 15 21 14 75 0 19 4 31 10 27 5 -3
8 -11 6 -18 -1 -7 -1 -9 1 -4 6 9 23 -1 23 -14 0 -6 -4 -8 -9 -5 -10 7 -21
-17 -20 -42 0 -14 2 -13 9 3 8 19 9 19 9 -3 1 -26 29 -41 41 -21 5 7 12 10 16
6 4 -4 14 -1 21 5 12 10 14 8 11 -8 -2 -16 4 -19 37 -22 30 -2 36 0 24 8 -9 5
-26 8 -37 5 -15 -3 -19 0 -15 12 3 8 9 11 12 6 3 -4 15 -9 26 -11 59 -7 140
-24 154 -31 9 -5 21 -6 28 -4 6 2 15 -1 19 -8 4 -8 3 -9 -4 -5 -17 10 -15 -9
3 -24 14 -11 24 -48 28 -97 1 -13 2 -23 4 -23 2 0 14 17 27 38 42 66 81 97
136 110 73 17 115 -11 90 -59 -15 -27 -70 -26 -77 1 -3 12 -14 20 -26 20 -25
0 -110 -88 -102 -107 3 -9 0 -11 -7 -7 -8 5 -9 2 -5 -10 4 -9 3 -15 -2 -12 -5
4 -25 -28 -46 -69 -20 -41 -40 -77 -46 -80 -5 -4 -7 -10 -4 -15 3 -4 -2 -10
-10 -14 -8 -3 -13 -11 -11 -18 1 -7 1 -10 -1 -5 -7 12 -61 -32 -69 -56 -6 -20
-31 -46 -45 -47 -3 0 -15 8 -25 18 -22 19 -26 72 -6 72 7 0 10 5 7 10 -8 12
-3 13 30 0 22 -8 31 -5 66 27 59 53 82 104 86 193 4 63 1 80 -17 108 -13 22
-26 32 -35 28 -8 -3 -15 -1 -15 4 0 12 -137 14 -144 2 -6 -11 5 -28 24 -35 12
-4 11 -6 -2 -6 -17 -1 -22 -12 -19 -39 2 -10 -6 -12 -27 -7 l-29 6 8 -58 c12
-84 -4 -116 -40 -80 -10 10 -12 2 -7 -40 4 -33 2 -55 -5 -59 -7 -4 -9 1 -4 15
4 12 2 21 -4 21 -6 0 -11 -5 -11 -12 0 -6 -3 -8 -7 -5 -3 4 2 16 12 27 21 23
4 27 -19 5 -10 -10 -13 -26 -10 -43 3 -15 -1 -48 -9 -74 l-15 -46 36 -7 c43
-8 123 -47 141 -69 18 -22 37 -20 20 2 -13 15 -12 16 3 3 10 -7 15 -17 12 -22
-3 -5 8 -25 24 -43 28 -32 31 -33 51 -20 15 11 21 26 21 54 0 27 6 43 20 53
11 8 17 17 13 21 -4 4 0 4 9 1 34 -13 147 67 127 91 -7 8 -7 14 1 19 6 4 9 3
8 -2 -2 -4 2 -9 7 -10 6 -2 10 11 11 28 1 43 23 63 57 50 21 -8 27 -17 27 -41
0 -23 -5 -31 -24 -36 -30 -7 -60 -39 -51 -54 3 -6 3 -9 -2 -8 -4 2 -24 -9 -43
-23 -19 -14 -51 -32 -70 -39 -52 -20 -60 -29 -60 -66 0 -34 -12 -51 -65 -88
-37 -25 -55 -74 -55 -146 0 -62 18 -120 47 -152 24 -27 86 -23 149 9 88 45
108 65 113 116 1 5 16 7 34 5 28 -3 32 -7 32 -32 0 -24 -6 -31 -31 -40 -16 -6
-44 -21 -61 -34 -55 -39 -136 -72 -181 -72 -36 0 -50 6 -77 33 -60 60 -76 203
-31 292 l25 47 -50 50 c-32 32 -55 48 -65 44 -8 -3 -12 -2 -9 4 9 14 -33 32
-58 25 -18 -5 -19 -4 -7 5 12 9 10 11 -12 7 -15 -2 -25 0 -22 4 3 5 -9 9 -26
9 -17 0 -29 -4 -25 -10 3 -5 13 -7 23 -4 14 5 14 4 2 -4 -10 -8 -18 -8 -27 -1
-25 22 -93 -21 -117 -74 -25 -55 -28 -78 -16 -108 16 -37 -1 -61 -39 -57 -20
2 -27 9 -29 31 -2 16 3 34 11 40 18 15 40 94 31 109 -4 6 -3 8 3 5 13 -8 36
41 26 56 -5 8 -2 8 9 0 12 -11 18 -9 33 6 9 11 30 23 46 26 33 7 65 47 53 66
-4 8 -3 9 4 5 8 -5 12 2 12 20 0 24 -2 25 -17 13 -14 -11 -14 -9 1 9 33 38 10
48 -74 34 -103 -18 -169 -15 -206 7 -41 25 -78 75 -97 131 -22 67 -50 303 -45
379 5 66 32 135 62 160 9 7 13 18 9 25 -3 6 -3 8 2 4 9 -9 100 69 100 85 0 18
28 37 49 34 10 -1 25 -12 33 -24z m-80 -98 c0 -8 -4 -12 -9 -9 -5 3 -6 10 -3
15 9 13 12 11 12 -6z m-53 -53 c3 -5 -1 -9 -9 -9 -8 0 -12 4 -9 9 3 4 7 8 9 8
2 0 6 -4 9 -8z m2154 -59 c2 -16 -4 -26 -22 -34 -14 -7 -46 -43 -73 -82 -26
-38 -54 -78 -61 -87 -12 -16 -4 -24 67 -75 45 -31 81 -60 81 -63 0 -4 -7 -18
-17 -31 -9 -13 -19 -37 -22 -54 -9 -40 -35 -57 -57 -35 -18 18 -11 58 11 58 7
0 23 13 34 29 l20 28 -76 54 c-42 30 -78 59 -80 64 -2 6 26 52 62 103 36 51
65 103 65 116 0 30 9 38 40 34 17 -2 26 -10 28 -25z m-1625 -30 c-7 -2 -19 -2
-25 0 -7 3 -2 5 12 5 14 0 19 -2 13 -5z m-103 -59 c0 -2 -7 -4 -15 -4 -8 0
-15 4 -15 10 0 5 7 7 15 4 8 -4 15 -8 15 -10z m-63 -16 c-3 -8 -6 -5 -6 6 -1
11 2 17 5 13 3 -3 4 -12 1 -19z m26 -13 c-7 -21 -12 -19 -10 4 0 11 5 18 9 15
4 -3 5 -11 1 -19z m144 19 c-3 -3 -12 -4 -19 -1 -8 3 -5 6 6 6 11 1 17 -2 13
-5z m-247 -39 c0 -5 -5 -3 -10 5 -5 8 -10 20 -10 25 0 6 5 3 10 -5 5 -8 10
-19 10 -25z m173 18 c-7 -2 -19 -2 -25 0 -7 3 -2 5 12 5 14 0 19 -2 13 -5z
m-208 -33 c3 -5 -1 -10 -10 -10 -9 0 -13 5 -10 10 3 6 8 10 10 10 2 0 7 -4 10
-10z m35 -35 c0 -5 -5 -3 -10 5 -5 8 -10 20 -10 25 0 6 5 3 10 -5 5 -8 10 -19
10 -25z m1450 5 c0 -5 -5 -10 -11 -10 -5 0 -7 5 -4 10 3 6 8 10 11 10 2 0 4
-4 4 -10z m-1300 -10 c0 -5 -7 -10 -15 -10 -8 0 -15 5 -15 10 0 6 7 10 15 10
8 0 15 -4 15 -10z m-37 -20 c3 -11 1 -18 -4 -14 -5 3 -9 12 -9 20 0 20 7 17
13 -6z m292 -30 c-3 -5 -12 -10 -18 -10 -7 0 -6 4 3 10 19 12 23 12 15 0z
m-746 -40 c0 -10 -3 -8 -9 5 -12 27 -12 43 0 25 5 -8 9 -22 9 -30z m247 0 c19
0 9 -17 -19 -32 -20 -10 -21 -9 -9 5 11 13 10 17 -5 27 -17 11 -17 11 0 6 10
-3 25 -6 33 -6z m571 -22 c-3 -8 -6 -5 -6 6 -1 11 2 17 5 13 3 -3 4 -12 1 -19z
m-230 6 c-3 -3 -12 -4 -19 -1 -8 3 -5 6 6 6 11 1 17 -2 13 -5z m60 0 c-3 -3
-12 -4 -19 -1 -8 3 -5 6 6 6 11 1 17 -2 13 -5z m-620 -36 c-3 -7 -5 -2 -5 12
0 14 2 19 5 13 2 -7 2 -19 0 -25z m173 28 c0 -2 -7 -7 -16 -10 -8 -3 -12 -2
-9 4 6 10 25 14 25 6z m538 -61 c-3 -3 -9 2 -12 12 -6 14 -5 15 5 6 7 -7 10
-15 7 -18z m76 -5 c-6 -6 -10 -3 -10 10 0 13 4 16 10 10 7 -7 7 -13 0 -20z
m-87 -32 c-3 -8 -6 -5 -6 6 -1 11 2 17 5 13 3 -3 4 -12 1 -19z m-554 -65 c-3
-7 -10 -13 -15 -13 -6 0 -8 7 -4 15 6 17 -5 20 -21 4 -8 -8 -13 -8 -17 0 -4 6
0 11 8 11 9 0 16 5 16 10 0 6 7 6 19 -2 10 -6 17 -18 14 -25z m37 -3 c0 -5 -2
-10 -4 -10 -3 0 -8 5 -11 10 -3 6 -1 10 4 10 6 0 11 -4 11 -10z m624 -8 c3 -5
-1 -9 -9 -9 -8 0 -12 4 -9 9 3 4 7 8 9 8 2 0 6 -4 9 -8z m-701 -16 c4 -10 0
-12 -15 -8 -18 4 -20 1 -16 -21 3 -15 1 -27 -3 -27 -16 0 -9 49 9 59 9 6 18
11 18 11 1 0 4 -6 7 -14z m-58 -14 c-3 -3 -11 0 -18 7 -9 10 -8 11 6 5 10 -3
15 -9 12 -12z m-76 -36 c-16 -18 -9 -29 9 -15 15 13 16 12 3 -3 -16 -22 -34
-13 -26 12 3 10 1 21 -5 25 -5 3 -10 10 -10 16 0 5 8 1 19 -8 10 -11 14 -22
10 -27z m298 38 c-3 -3 -12 -4 -19 -1 -8 3 -5 6 6 6 11 1 17 -2 13 -5z m526
-9 c-3 -9 -8 -14 -10 -11 -3 3 -2 9 2 15 9 16 15 13 8 -4z m-698 -5 c3 -5 1
-10 -4 -10 -6 0 -11 5 -11 10 0 6 2 10 4 10 3 0 8 -4 11 -10z m-90 -60 c-3 -5
-1 -10 6 -10 7 0 10 -2 7 -5 -8 -9 -38 6 -32 16 3 5 10 9 15 9 6 0 7 -4 4 -10z
m280 -20 c-3 -5 -12 -10 -18 -10 -7 0 -6 4 3 10 19 12 23 12 15 0z m332 -22
c-3 -8 -6 -5 -6 6 -1 11 2 17 5 13 3 -3 4 -12 1 -19z m-406 -6 c-7 -2 -18 1
-23 6 -8 8 -4 9 13 5 13 -4 18 -8 10 -11z m534 8 c3 -6 -1 -7 -9 -4 -18 7 -21
14 -7 14 6 0 13 -4 16 -10z m-461 -9 c19 -7 19 -8 -1 -13 -14 -4 -24 0 -27 8
-6 15 -1 16 28 5z m7 -76 c5 4 9 1 9 -5 0 -17 -25 -6 -26 11 -1 9 1 10 3 1 3
-7 9 -10 14 -7z m449 -9 c0 -2 -8 -10 -17 -17 -16 -13 -17 -12 -4 4 13 16 21
21 21 13z m-252 -15 c11 -7 10 -9 -3 -14 -11 -5 -14 -3 -9 5 5 8 2 9 -10 5
-10 -4 -15 -3 -11 3 7 12 16 12 33 1z m-236 -327 c-9 -7 -19 -10 -22 -7 -3 3
1 8 8 10 6 3 12 12 12 21 0 14 2 15 9 3 7 -10 4 -19 -7 -27z m13 -54 c-3 -5
-12 -10 -18 -10 -7 0 -6 4 3 10 19 12 23 12 15 0z m80 -20 c-3 -5 -16 -10 -28
-9 -20 1 -20 2 3 9 14 4 26 8 28 9 2 1 0 -3 -3 -9z m1673 -912 c7 -7 12 -21
12 -31 0 -11 26 -55 58 -98 l57 -78 53 -1 c28 0 52 5 52 10 0 6 11 10 24 10
30 0 42 -28 21 -49 -12 -13 -19 -13 -35 -3 -11 6 -44 12 -74 12 l-54 0 -64 85
c-34 47 -68 85 -75 85 -7 0 -17 9 -23 19 -7 15 -6 23 6 35 19 19 26 20 42 4z
m-1065 -54 c71 -34 106 -137 69 -204 -21 -38 -83 -80 -121 -80 -46 0 -102 23
-122 52 -25 34 -43 35 -113 4 -50 -22 -76 -48 -76 -75 0 -21 62 -80 101 -95
54 -22 115 -7 129 30 15 38 55 30 55 -11 0 -27 -4 -30 -45 -39 -82 -18 -145
-13 -179 12 l-32 23 -26 -20 c-21 -17 -40 -21 -99 -21 -40 0 -76 -4 -79 -10
-10 -16 -44 -11 -54 8 -19 36 1 45 71 33 90 -15 111 -14 142 10 24 19 25 22
11 42 -8 12 -15 30 -15 40 0 16 -6 18 -32 14 -47 -7 -73 6 -92 47 -9 19 -24
39 -32 44 -22 12 -14 56 10 60 25 5 44 -21 38 -53 -2 -14 3 -36 12 -50 21 -32
57 -32 116 0 49 27 102 52 137 66 15 5 21 14 17 24 -10 25 5 78 30 107 45 54
119 71 179 42z m983 -28 c3 -12 38 -64 78 -116 60 -80 76 -95 96 -92 70 8 75
7 78 -16 4 -27 -23 -40 -49 -24 -10 7 -30 12 -43 12 -20 0 -40 20 -96 95 -39
53 -82 100 -95 105 -34 13 -43 39 -21 56 23 16 45 8 52 -20z"/>
<path d="M501 1336 c-9 -11 -7 -20 13 -42 14 -16 26 -24 26 -18 0 6 -9 19 -20
29 -15 14 -17 20 -8 26 7 4 10 11 7 14 -4 3 -11 -1 -18 -9z"/>
<path d="M561 1263 c-1 -17 16 -25 25 -12 4 7 3 9 -4 5 -5 -3 -13 0 -15 6 -4
9 -6 10 -6 1z"/>
<path d="M2610 3044 c0 -128 3 -165 13 -161 6 2 11 10 9 16 -1 7 3 21 9 33 18
34 90 108 105 108 8 0 14 5 14 10 0 6 5 10 11 10 5 0 7 -4 4 -10 -3 -5 -1 -10
4 -10 6 0 11 5 11 11 0 8 4 8 14 0 8 -7 17 -8 20 -3 4 8 -193 162 -208 162 -3
0 -6 -75 -6 -166z"/>
<path d="M3017 2897 c-2 -6 2 -18 10 -25 15 -16 18 -36 3 -27 -6 3 -10 -4 -10
-16 0 -12 -6 -30 -12 -39 -7 -9 4 2 24 25 21 22 37 45 37 50 0 17 -47 47 -52
32z"/>
<path d="M1567 2590 c3 -11 7 -20 9 -20 2 0 4 9 4 20 0 11 -4 20 -9 20 -5 0
-7 -9 -4 -20z"/>
<path d="M1500 2540 c-9 -6 -10 -10 -3 -10 6 0 15 5 18 10 8 12 4 12 -15 0z"/>
<path d="M1650 2530 c-23 -7 -23 -8 -3 -9 12 -1 25 4 28 9 3 6 5 10 3 9 -2 -1
-14 -5 -28 -9z"/>
<path d="M1480 2506 c0 -2 7 -7 16 -10 8 -3 12 -2 9 4 -6 10 -25 14 -25 6z"/>
</g>
</svg>
